<svg xmlns="http://www.w3.org/2000/svg" xmlns:xlink="http://www.w3.org/1999/xlink" width="36px" height="36px" viewBox="0 0 36 36" version="1.1">
    <title>已填写备份</title>
    <g id="已填写备份" stroke="none" stroke-width="1" fill="none" fill-rule="evenodd">
        <path d="M24,3 L24,6 L6,6 L6,30 L30,30 L30,18 L33,18 L33,31 C33,32.1045695 32.1045695,33 31,33 L5,33 C3.8954305,33 3,32.1045695 3,31 L3,5 C3,3.8954305 3.8954305,3 5,3 L24,3 Z M33.3354262,5.11172607 L34.5014394,6.27472803 C34.7595184,6.53214061 34.7600587,6.95002915 34.5026461,7.2081082 C34.5021382,7.20861745 34.5016295,7.20912586 34.5011199,7.20963344 L18.4349628,23.2124089 C18.1773046,23.4690505 17.7605915,23.4689081 17.5031089,23.2120904 L15.868272,21.5814755 L15.8772826,21.5717969 L11.2895526,17.0008307 C11.0312772,16.7436152 11.0304181,16.3257272 11.2876336,16.0674518 L11.2884025,16.0666811 L12.4551273,14.9028516 C12.7125918,14.6460264 13.1292943,14.645857 13.3869674,14.9024728 L17.9802826,19.4777969 L32.4035723,5.11140761 C32.6612304,4.85476596 33.0779436,4.85490837 33.3354262,5.11172607 Z" id="形状结合" fill="#C3C3C3" fill-rule="nonzero"/>
    </g>
</svg>
