<svg xmlns="http://www.w3.org/2000/svg" xmlns:xlink="http://www.w3.org/1999/xlink" width="36px" height="36px" viewBox="0 0 36 36" version="1.1">
  <title>已填写</title>
  <g id="已填写" stroke="none" stroke-width="1" fill="none" fill-rule="evenodd">
    <path d="M24,3 L24,6 L6,6 L6,30 L30,30 L30,18 L33,18 L33,31 C33,32.1045695 32.1045695,33 31,33 L5,33 C3.8954305,33 3,32.1045695 3,31 L3,5 C3,3.8954305 3.8954305,3 5,3 L24,3 Z" id="矩形" fill="#3692F5" fill-rule="nonzero"/>
    <path d="M11.5552677,6.56258745 L11.5563563,6.56258611 L13.2043071,6.56463348 C13.5679648,6.56508548 13.8627377,6.85961888 13.8634854,7.22327608 L13.876207,13.7064831 L34.2335842,13.7467178 C34.5972491,13.7474365 34.8918091,14.0421979 34.8922793,14.4058632 L34.8944085,16.0527255 C34.8948798,16.4172332 34.59977,16.713107 34.2352624,16.7135783 C34.2345431,16.7135792 34.2338239,16.713579 34.2331046,16.7135776 L11.556945,16.66876 C11.1932801,16.6680412 10.8987201,16.3732798 10.89825,16.0096146 L10.8952646,13.7005914 L10.9084798,13.7001191 L10.896626,7.22394295 C10.8958766,6.85943579 11.1907605,6.56333685 11.5552677,6.56258745 Z" id="1" fill="#3692F5" transform="translate(22.894837, 11.638082) rotate(-45.000000) translate(-22.894837, -11.638082) "/>
  </g>
</svg>
