<svg class="time_svg__icon" viewBox="0 0 1024 1024" xmlns="http://www.w3.org/2000/svg" fill="currentColor" width="1em" height="1em"><path d="M512 905.216c111.275-2.731 203.947-41.131 278.016-115.2S902.485 623.275 905.216 512c-2.731-111.275-41.131-203.947-115.2-278.016S623.275 121.515 512 118.784c-111.275 2.731-203.947 41.131-278.016 115.2S121.515 400.725 118.784 512c2.731 111.275 41.131 203.947 115.2 278.016S400.725 902.485 512 905.216zm0 65.536c-129.707-3.413-237.739-48.299-324.096-134.656S56.661 641.707 53.248 512c3.413-129.707 48.299-237.739 134.656-324.096S382.293 56.661 512 53.248c129.707 3.413 237.739 48.299 324.096 134.656S967.339 382.293 970.752 512c-3.413 129.707-48.299 237.739-134.656 324.096S641.707 967.339 512 970.752zm-32.768-720.896c9.557 0 17.408 3.072 23.552 9.216S512 273.067 512 282.624v262.144c0 9.557-3.072 17.408-9.216 23.552s-13.995 9.216-23.552 9.216-17.408-3.072-23.552-9.216-9.216-13.995-9.216-23.552V282.624c0-9.557 3.072-17.408 9.216-23.552s13.995-9.216 23.552-9.216zm0 262.144h262.144c21.845 0 32.768 10.923 32.768 32.768s-10.923 32.768-32.768 32.768H479.232c-21.845 0-32.768-10.923-32.768-32.768S457.387 512 479.232 512z"></path></svg>