<svg t="1660463242800" class="icon" fill="currentColor" viewBox="0 0 1024 1024" version="1.1" xmlns="http://www.w3.org/2000/svg" p-id="1058" width="200" height="200"><path d="M637.69795022 613.07450648L536.63005096 512.00505264 637.69756128 410.92549352c3.29509672-3.29470816 5.10743883-7.67534442 5.10432932-12.33543033-0.00310913-4.64609399-1.81273067-9.00729716-5.09500149-12.28024018-3.28732347-3.29587418-7.65319036-5.10860485-12.30006183-5.11132546-4.6666935 0-9.04266567 1.8123421-12.3342643 5.10277475L512.0073847 487.36683951 410.92510497 386.30127267c-3.29043261-3.29043261-7.66290709-5.10277475-12.3121106-5.1027747-4.6488146 0-9.02128907 1.81195319-12.31133314 5.10199724-3.28926658 3.28032732-5.10044269 7.643474-5.1035522 12.28956799-0.00310913 4.66008592 1.8092326 9.04072218 5.1035522 12.33504177l101.08150223 101.07955913L386.30127267 613.07489503c-3.29082154 3.29043261-5.10316328 7.66212962-5.10316326 12.31172167 0 4.6488146 1.81273067 9.02167762 5.10355221 12.31249917 3.29004406 3.29043261 7.66212962 5.10199727 12.3109446 5.10199725 4.64920353 0 9.02206655-1.81195319 12.3121106-5.10199725l101.08111369-101.0682878 101.06867633 101.0682878c3.29043261 3.29043261 7.66679371 5.10199727 12.32221591 5.10199725 4.65853132-0.00310913 9.02012304-1.8123421 12.29423208-5.09422401C644.48480746 630.91225861 644.48675097 619.86330722 637.69795022 613.07450648z" p-id="1059" fill="currentColor"></path></svg>