<svg width="19" height="14" viewBox="0 0 19 14" fill="currentColor" xmlns="http://www.w3.org/2000/svg">
<path d="M9.25 3.65625L3.5 8.40625V13.5C3.5 13.7812 3.71875 14 4 14H7.5C7.75 14 7.96875 13.7812 7.96875 13.5V10.5C7.96875 10.25 8.21875 10 8.46875 10H10.4688C10.75 10 10.9688 10.25 10.9688 10.5V13.5C10.9688 13.7812 11.2188 14 11.4688 14H15C15.25 14 15.5 13.7812 15.5 13.5V8.375L9.71875 3.65625C9.65625 3.59375 9.5625 3.5625 9.5 3.5625C9.40625 3.5625 9.3125 3.59375 9.25 3.65625ZM18.3438 6.875L15.75 4.71875V0.40625C15.75 0.1875 15.5625 0.03125 15.375 0.03125H13.625C13.4062 0.03125 13.25 0.1875 13.25 0.40625V2.65625L10.4375 0.34375C10.1875 0.15625 9.84375 0.03125 9.5 0.03125C9.125 0.03125 8.78125 0.15625 8.53125 0.34375L0.625 6.875C0.53125 6.9375 0.46875 7.0625 0.46875 7.15625C0.46875 7.25 0.53125 7.34375 0.5625 7.40625L1.375 8.375C1.4375 8.46875 1.53125 8.5 1.65625 8.5C1.75 8.5 1.84375 8.46875 1.90625 8.40625L9.25 2.375C9.3125 2.3125 9.40625 2.28125 9.5 2.28125C9.5625 2.28125 9.65625 2.3125 9.71875 2.375L17.0625 8.40625C17.125 8.46875 17.2188 8.5 17.3125 8.5C17.4375 8.5 17.5312 8.46875 17.5938 8.375L18.4062 7.40625C18.4688 7.34375 18.5 7.25 18.5 7.15625C18.5 7.0625 18.4375 6.9375 18.3438 6.875Z" fill="currentColor"/>
</svg>
