<svg t="1660786587512" fill="currentColor" class="icon" viewBox="0 0 1024 1024" version="1.1" xmlns="http://www.w3.org/2000/svg" p-id="955" width="20" height="20"><path fill="currentColor" d="M783.231 240.77C775.446 141.873 692.897 64 592 64H256C149.962 64 64 149.961 64 256v336c0 100.896 77.874 183.446 176.77 191.231C248.555 882.128 331.103 960 432 960h336c106.039 0 192-85.961 192-192V432c0-100.897-77.872-183.445-176.769-191.23zM144 592V256c0-61.758 50.243-112 112-112h336c61.758 0 112 50.242 112 112v336c0 61.757-50.242 112-112 112H256c-61.757 0-112-50.243-112-112z m736 176c0 61.757-50.243 112-112 112H432c-56.311 0-102.917-41.815-110.723-96H592c106.039 0 192-85.962 192-192V321.277c54.185 7.806 96 54.412 96 110.723v336z" p-id="956"></path><path fill="currentColor" d="M401.372 559.765l0.005-0.005 214.956-214.956c15.621-15.621 15.621-40.947 0-56.568s-40.947-15.621-56.568 0L373.088 474.911l-84.853-84.853c-15.621-15.621-40.947-15.621-56.568 0s-15.621 40.947 0 56.568l113.137 113.138c15.621 15.621 40.948 15.621 56.568 0.001z" p-id="957"></path></svg>